PathFileType	4	(X/Y/Z)	Patient4_TMGait_0pt5_01_left_26.trc.trc
DataRate	CameraRate	NumFrames	NumMarkers	Units	OrigDataRate	OrigDataStartFrame	OrigNumFrames
77.777777777778	77.777777777778	4	33	mm	77.777777777778	1	       141
Frame#	Time	L.ASIS			Sacral			L.Shoulder			Chest			R.Shoulder			Neck			R.ASIS			R.Thigh.Superior			R.Thigh.Lateral			R.Thigh.Inferior			R.Patella			L.Thigh.Superior			L.Thigh.Lateral			L.Thigh.Inferior			L.Patella			L.Shank.Superior			L.Shank.Lateral			L.Shank.Inferior			R.Shank.Superior			R.Shank.Lateral			R.Shank.Inferior			R.Heel			R.Midfoot.Superior			R.Midfoot.Lateral			R.Toe			L.Heel			L.Midfoot.Lateral			L.Midfoot.Superior			L.Toe			L.Elbow			L.Wrist			R.Elbow			R.Wrist			
		X1	Y1	Z1	X2	Y2	Z2	X3	Y3	Z3	X4	Y4	Z4	X5	Y5	Z5	X6	Y6	Z6	X7	Y7	Z7	X8	Y8	Z8	X9	Y9	Z9	X10	Y10	Z10	X11	Y11	Z11	X12	Y12	Z12	X13	Y13	Z13	X14	Y14	Z14	X15	Y15	Z15	X16	Y16	Z16	X17	Y17	Z17	X18	Y18	Z18	X19	Y19	Z19	X20	Y20	Z20	X21	Y21	Z21	X22	Y22	Z22	X23	Y23	Z23	X24	Y24	Z24	X25	Y25	Z25	X26	Y26	Z26	X27	Y27	Z27	X28	Y28	Z28	X29	Y29	Z29	X30	Y30	Z30	X31	Y31	Z31	X32	Y32	Z32	X33	Y33	Z33	

1	34.770000000000	812.172335499017	961.955944992568	357.494794533263	608.396371418752	1004.969673868568	527.645074332468	765.660452239134	1435.007717216241	336.138241509949	880.186814024878	1367.323069965315	490.105461419760	806.262881382188	1440.876345937204	669.909859302513	777.083185438714	1496.120133255251	486.934837165738	845.768980102000	944.186422702118	629.499977463786	884.526942624042	741.685504360386	596.868938870706	805.776197735284	633.446239133369	658.059591452913	876.713764706034	581.328507165257	572.427680022492	875.294661513117	493.311914703128	575.279341912787	900.917882290958	783.231122496347	387.279462812909	858.934788551147	654.715708262356	312.536112853552	965.197018180446	596.166956290035	371.375525170977	982.213815236460	506.953466548243	365.526777576061	921.807588160015	435.206301931027	361.205466072307	784.941586557676	377.799931458388	313.375800350924	785.320918907927	248.980861780783	372.502784056568	849.015156254484	404.190973446758	583.709712579004	780.704444910486	299.280223302390	645.780276078163	819.823651154319	206.357706904646	580.432959336428	683.906959794064	41.866453676912	552.133854831098	855.497331781493	98.095456250952	583.260635633631	769.149528190492	36.026904472263	625.387500371561	976.425145452786	48.111957101278	608.142664135107	600.326444910426	168.647734864346	410.886775612785	662.655035967292	123.763531766832	333.598886074607	766.809992983249	142.373183069131	354.347389146222	854.925140448213	36.462879155059	333.279352785714	709.104154025230	1083.785500102731	218.400886653795	835.977239104706	853.403400044899	205.125515842329	823.234993039413	1103.417192395040	809.623337588967	1035.603910005436	954.747048867224	790.942753795332	
2	34.782857142857	810.169524260767	962.335737945784	357.953690385294	607.557342423650	1005.437570517156	529.295362478804	764.161841694085	1434.950575469706	336.843157370314	879.825927810006	1367.109283360770	489.858501101288	807.866841238787	1441.089361958683	670.209716841789	776.983063502632	1496.208817923700	487.407548062733	844.971070945312	943.929514620002	629.833175053377	881.661446922904	741.045299961258	596.785473096982	802.516578248055	633.286305597836	658.617754844057	872.505058522500	580.671682510881	572.642523044453	870.557388794477	492.767587252422	575.684267178397	899.516299642684	784.760194808669	387.261041565610	857.993767411668	655.883194964910	312.701311709381	964.512253707772	598.038312448796	371.405418509715	982.828459790529	510.521267454886	365.526758868751	926.492195328130	437.665862460316	360.346127279780	794.079806346310	372.428184806310	312.770270567169	803.696274854675	244.029109180561	370.304893860213	843.802799219607	403.760481656131	583.972856806913	775.161468080979	299.097787727799	646.078740997426	813.638763633318	206.056499724039	580.512608757529	677.083268502654	41.875473254731	552.232523253765	848.663229819836	97.943099538967	583.319632178309	762.305119890071	36.006713160713	625.433884117616	969.629206807528	47.823192616433	608.229285945213	626.431240860800	151.350066558070	409.450093957138	690.057539339994	112.221783976185	330.836804368837	792.204110514169	137.512826695808	350.914855353648	886.360698609520	38.976694812770	327.270209627356	702.754053737584	1084.120149083317	221.002283133435	818.757350932670	849.049913747879	207.783136998077	832.677675248482	1104.309555645875	808.948173812905	1050.788058301958	967.825941358339	785.007950746247	
3	34.795714285714	808.212967048890	962.681016533087	358.373328391811	606.728859577527	1005.885550270756	530.899290801111	762.702757389489	1434.887704915470	337.523736572138	879.479620376641	1366.879130954331	489.597053495480	809.448104308291	1441.272012976221	670.485083028472	776.893164136478	1496.279728577495	487.864145257676	844.187391241614	943.671013544327	630.139405222747	878.857150197899	740.405906462424	596.703354770616	799.321203841208	633.115699462110	659.152695353734	868.390581384792	580.015905854976	572.851771453172	865.908289596490	492.210327458240	576.073827626677	898.033974400212	786.122015221119	387.245245910252	856.897417459954	656.921395140221	312.835549035100	963.585028256208	599.708073636456	371.524992495381	983.222040543795	513.959649066550	365.604281161265	930.967649576471	440.073851969509	359.563677990689	803.260713129795	367.060261161296	312.058010852416	822.004394592791	239.263698224616	368.153295484043	838.682738339552	403.320314265220	584.224513963796	769.698030530105	298.912850850812	646.364595258595	807.522907345169	205.746262089338	580.583807397925	670.313437880568	41.889505254301	552.324954429091	841.886464133236	97.790788311236	583.370910317242	755.517465816582	35.989545329784	625.479338305817	962.888606096946	47.527001223038	608.317310020632	652.641804626829	134.374011803282	407.837523351805	717.600782034992	101.016574328758	328.037182874541	817.580504032000	132.953012592205	347.594265153945	917.685354873209	41.898313871795	321.610355719665	696.503643757434	1084.462810335527	223.542829145513	801.746385347228	844.859719879652	210.479748034387	842.075887640378	1105.199065416575	808.213846907300	1065.734178984782	980.877767965845	779.026666839533	
4	34.808571428571	806.345009104282	962.962720386761	358.713630032024	605.923968973619	1006.293936404103	532.406199700556	761.322072442782	1434.813532017165	338.149971347227	879.161790196386	1366.618557433422	489.302978020792	810.983655406520	1441.397673783205	670.706348561242	776.824540680693	1496.316557751228	488.280511241666	843.437198028254	943.405191167171	630.384762433688	876.177703073773	739.765138482080	596.612420219265	796.253809961308	632.921672576973	659.632325449215	864.453730678961	579.358763987006	573.036750113641	861.426742569536	491.625595642602	576.422144715782	896.408086270242	787.176145674457	387.233523409548	855.541437431302	657.731831572527	312.905384728159	962.239188145308	601.012025530898	371.788228218908	983.216659948689	517.145236081732	365.810124291913	935.047814986953	442.386306431422	358.907689195675	812.464164686588	361.751295841033	311.178653240230	840.098961328098	234.896630801641	366.097980581138	833.733056757167	402.859540264393	584.443289235015	764.378741120693	298.724366006911	646.620589583738	801.526998910990	205.418983975665	580.634873137117	663.632102474319	41.913244964629	552.406939055206	835.204981377419	97.640012325240	583.408012314790	748.822648158303	35.978181379785	625.522978980988	956.239432251823	47.217910588040	608.406148327768	678.921402212750	118.131298741392	405.962491251363	745.250047287648	90.524380747939	325.217129606875	842.789067493606	128.998423538980	344.495878221818	948.623275468389	45.572081133084	316.596084429041	690.435609847507	1084.828445105485	225.964559882459	785.164851920013	840.998065658060	213.240568215849	851.384464395244	1106.095822766781	807.349061473704	1080.180877187679	993.895165271219	772.936204941897	
